<svg id="Ebene_1" data-name="Ebene 1" xmlns="http://www.w3.org/2000/svg" viewBox="0 0 295.01 512"><title>maybe</title><path d="M223.17,361a15,15,0,0,1-15-15.76q1.67-34.9,11-57.26,11.35-27.21,44.91-59.76t42.49-46.32a81,81,0,0,0,13.76-45.35q0-32.29-16-49.3t-47-17q-29.61,0-47.66,16.63-13.86,12.77-17.08,32.47a15,15,0,0,1-14.8,12.62h-53.9A15,15,0,0,1,109,115.13q5.47-49.21,40.47-79.66Q190.28,0,257.38,0q69.15,0,107.87,35.13T404,133.3q0,56.12-52.3,110.54l-42.33,41.67q-19.44,22.13-22.74,61.65A15,15,0,0,1,271.64,361ZM202,467.78q0-20.22,12.73-32.73t34.41-12.51q22,0,34.75,12.85t12.73,32.39q0,18.86-12.38,31.54T249.12,512q-22.71,0-34.93-12.68T202,467.78Z" transform="translate(-108.95)"/></svg>