<svg id="Ebene_1" data-name="Ebene 1" xmlns="http://www.w3.org/2000/svg" viewBox="0 0 512 512"><title>no</title><path d="M329.6,264.2a11.3,11.3,0,0,1,0-16.4L505,72.5a25.19,25.19,0,0,0,7-16.4,25.19,25.19,0,0,0-7-16.4L472.3,7a25.19,25.19,0,0,0-16.4-7c-7,0-11.7,2.3-16.4,7L264.2,182.4a11.3,11.3,0,0,1-16.4,0L72.5,7A25.19,25.19,0,0,0,56.1,0,25.19,25.19,0,0,0,39.7,7L7,39.7A25.19,25.19,0,0,0,0,56.1,25.19,25.19,0,0,0,7,72.5L182.3,247.8a11.3,11.3,0,0,1,0,16.4L7,439.5a22.71,22.71,0,0,0,0,32.8L39.7,505a25.19,25.19,0,0,0,16.4,7,25.19,25.19,0,0,0,16.4-7L247.8,329.7a11.3,11.3,0,0,1,16.4,0L439.5,505a22.71,22.71,0,0,0,32.8,0L505,472.3a22.71,22.71,0,0,0,0-32.8Z"/></svg>