<svg id="Capa_1" data-name="Capa 1" xmlns="http://www.w3.org/2000/svg" viewBox="0 0 512 473.33"><title>duration</title><g id="Layer_1" data-name="Layer 1"><path d="M511,219.17a10.78,10.78,0,0,0-9.76-6.2H469.33C449.06,103,352.46,19.33,236.67,19.33,106.18,19.33,0,125.51,0,256S106.17,492.66,236.67,492.66a237.55,237.55,0,0,0,205-118.27,21.52,21.52,0,0,0-37.24-21.56,194.42,194.42,0,0,1-167.73,96.81C129.9,449.64,43,362.78,43,256S129.9,62.38,236.67,62.38c92,0,169,64.5,188.64,150.6H393.68a10.76,10.76,0,0,0-8.28,17.65l53.79,64.54a10.76,10.76,0,0,0,16.53,0l53.79-64.54A10.76,10.76,0,0,0,511,219.17Z" transform="translate(0 -19.33)"/><path d="M236.67,73.12a21.51,21.51,0,0,0-21.51,21.52V225.18a37.61,37.61,0,0,0,21.52,68.49A37.09,37.09,0,0,0,252.56,290l74.84,43.19a21.21,21.21,0,0,0,10.74,2.9A21.51,21.51,0,0,0,348.91,296L274,252.72a37.46,37.46,0,0,0-15.78-27.51V94.64A21.57,21.57,0,0,0,236.67,73.12Zm0,199A16.13,16.13,0,1,1,252.8,256,16.15,16.15,0,0,1,236.67,272.13Z" transform="translate(0 -19.33)"/></g></svg>