<svg id="Capa_1" data-name="Capa 1" xmlns="http://www.w3.org/2000/svg" viewBox="0 0 536 548.05"><defs><style>.cls-1{fill:#030104;}</style></defs><title>suggestion</title><path class="cls-1" d="M383.45,108.06a35.66,35.66,0,0,0,36-35.45V35.52a36,36,0,1,0-72,0V72.63C347.46,92.27,363.55,108.06,383.45,108.06Z" transform="translate(0 0.48)"/><path class="cls-1" d="M127.46,108.06c19.91,0,36.05-15.79,36.05-35.45V35.52a36,36,0,0,0-72-.16V72.63a35.64,35.64,0,0,0,35.85,35.43Z" transform="translate(0 0.48)"/><rect class="cls-1" x="166" y="226.81" width="57.63" height="50.14"/><rect class="cls-1" x="166" y="310.08" width="57.63" height="50.11"/><rect class="cls-1" x="166" y="395" width="57.63" height="50.11"/><rect class="cls-1" x="74.47" y="310.08" width="57.59" height="50.11"/><rect class="cls-1" x="74.47" y="395" width="57.59" height="50.11"/><path d="M408,291.57a128,128,0,1,0,128,128A128.15,128.15,0,0,0,408,291.57Zm0,228.77A100.77,100.77,0,1,1,508.77,419.57,100.88,100.88,0,0,1,408,520.34Z" transform="translate(0 0.48)"/><path d="M474.71,415.62H417.19V346.46a10.54,10.54,0,0,0-21.08,0v79.7a10.54,10.54,0,0,0,10.54,10.54h68.06a10.54,10.54,0,0,0,0-21.08Z" transform="translate(0 0.48)"/><path class="cls-1" d="M512.22,251.4l-.77-190H438.92V79.49c0,29.8-24.56,54.08-54.84,54.08s-54.83-24.28-54.83-54.08V61.43H182.9V79.49c0,29.8-24.6,54.08-54.87,54.08S73.18,109.31,73.18,79.49V61.43L0,60.53V512H223.63V475.53l-187,.52V187.63H475.45V251.4Z" transform="translate(0 0.48)"/></svg>