<svg id="Layer_1" data-name="Layer 1" xmlns="http://www.w3.org/2000/svg" viewBox="0 0 713.98 801.68"><defs><style>.cls-1,.cls-2{fill:#cc1331;}.cls-1,.cls-3{stroke:#cc1331;stroke-miterlimit:10;}.cls-3{fill:none;}</style></defs><title>teaco-logo</title><path class="cls-1" d="M414.87,237.51l1.28-.53Z" transform="translate(-163.99 -133.18)"/><path class="cls-1" d="M421.86,234.68c.78-.31,1.58-.61,2.36-.9C423.43,234.08,422.64,234.37,421.86,234.68Z" transform="translate(-163.99 -133.18)"/><path class="cls-1" d="M406.17,241.38l1.81-.85Z" transform="translate(-163.99 -133.18)"/><path class="cls-1" d="M429,232l2.56-.9Z" transform="translate(-163.99 -133.18)"/><path class="cls-1" d="M510.68,216.27c.84,0,1.66-.07,2.5-.09C512.34,216.2,511.52,216.24,510.68,216.27Z" transform="translate(-163.99 -133.18)"/><path class="cls-1" d="M436.52,229.45c.77-.26,1.55-.52,2.33-.76C438.07,228.93,437.29,229.19,436.52,229.45Z" transform="translate(-163.99 -133.18)"/><path class="cls-1" d="M385.46,252.07l1.82-1Z" transform="translate(-163.99 -133.18)"/><path class="cls-1" d="M398.83,244.92l2.33-1.16Z" transform="translate(-163.99 -133.18)"/><path class="cls-1" d="M370.71,261.17l2-1.31Z" transform="translate(-163.99 -133.18)"/><path class="cls-1" d="M392,248.44c.77-.41,1.54-.82,2.32-1.22C393.57,247.62,392.8,248,392,248.44Z" transform="translate(-163.99 -133.18)"/><path class="cls-1" d="M494.45,217.36c.89-.09,1.79-.17,2.69-.24C496.24,217.19,495.34,217.27,494.45,217.36Z" transform="translate(-163.99 -133.18)"/><path class="cls-1" d="M486.67,218.21l1.75-.2Z" transform="translate(-163.99 -133.18)"/><path class="cls-1" d="M477.06,219.62c.65-.11,1.29-.23,1.94-.33C478.35,219.39,477.71,219.51,477.06,219.62Z" transform="translate(-163.99 -133.18)"/><path class="cls-1" d="M445.54,226.67l.59-.18Z" transform="translate(-163.99 -133.18)"/><path class="cls-1" d="M502.38,216.71c.95-.07,1.89-.13,2.84-.18C504.27,216.58,503.33,216.64,502.38,216.71Z" transform="translate(-163.99 -133.18)"/><path class="cls-1" d="M453.49,224.51l2.25-.55Z" transform="translate(-163.99 -133.18)"/><path class="cls-1" d="M461,222.72l2.69-.59Z" transform="translate(-163.99 -133.18)"/><path class="cls-1" d="M468.7,221.11c.88-.17,1.76-.35,2.65-.51C470.46,220.76,469.58,220.94,468.7,221.11Z" transform="translate(-163.99 -133.18)"/><path class="cls-1" d="M364.29,265.52l2.13-1.47Z" transform="translate(-163.99 -133.18)"/><path class="cls-1" d="M291.36,341c.39-.6.78-1.19,1.18-1.78C292.14,339.8,291.75,340.39,291.36,341Z" transform="translate(-163.99 -133.18)"/><path class="cls-1" d="M301.76,326.08l.09-.11Z" transform="translate(-163.99 -133.18)"/><path class="cls-1" d="M297,332.6c-.22.31-.43.64-.65.95l.94-1.35C297.22,332.33,297.12,332.46,297,332.6Z" transform="translate(-163.99 -133.18)"/><path class="cls-1" d="M311.07,314.37c.52-.63,1.06-1.26,1.59-1.89C312.13,313.11,311.59,313.74,311.07,314.37Z" transform="translate(-163.99 -133.18)"/><path class="cls-1" d="M262.61,399.36c.24-.68.47-1.36.71-2C263.08,398,262.85,398.68,262.61,399.36Z" transform="translate(-163.99 -133.18)"/><path class="cls-1" d="M281.68,357.05c.35-.63.69-1.25,1-1.86C282.37,355.8,282,356.42,281.68,357.05Z" transform="translate(-163.99 -133.18)"/><path class="cls-1" d="M266.29,389.47l.18-.45Z" transform="translate(-163.99 -133.18)"/><path class="cls-1" d="M269.5,381.74l.9-2.05Z" transform="translate(-163.99 -133.18)"/><path class="cls-1" d="M306.31,320.19l1.36-1.68Z" transform="translate(-163.99 -133.18)"/><path class="cls-1" d="M352.27,274.43c.22-.18.45-.35.68-.52C352.72,274.08,352.49,274.25,352.27,274.43Z" transform="translate(-163.99 -133.18)"/><path class="cls-1" d="M338.9,285.65c.61-.55,1.23-1.11,1.86-1.66C340.13,284.54,339.51,285.1,338.9,285.65Z" transform="translate(-163.99 -133.18)"/><path class="cls-1" d="M344.94,280.41c.5-.42,1-.86,1.51-1.28C345.94,279.55,345.44,280,344.94,280.41Z" transform="translate(-163.99 -133.18)"/><path class="cls-1" d="M358.19,269.92c.63-.47,1.26-.92,1.9-1.38C359.45,269,358.82,269.45,358.19,269.92Z" transform="translate(-163.99 -133.18)"/><path class="cls-1" d="M333.3,290.77l1.8-1.67Z" transform="translate(-163.99 -133.18)"/><path class="cls-1" d="M316.11,308.52l1.52-1.72Z" transform="translate(-163.99 -133.18)"/><path class="cls-1" d="M322,302.1l.72-.77Z" transform="translate(-163.99 -133.18)"/><path class="cls-1" d="M327.94,296l1.28-1.25Z" transform="translate(-163.99 -133.18)"/><path class="cls-1" d="M378.23,256.37l.78-.49Z" transform="translate(-163.99 -133.18)"/><path class="cls-1" d="M261.47,406.12h-1.14c0,.1-.06.2-.1.3h1.15Z" transform="translate(-163.99 -133.18)"/><path class="cls-1" d="M260.45,405.75l-.12.36h0Z" transform="translate(-163.99 -133.18)"/><path class="cls-1" d="M294.5,406.6l154,.83-154-1.08Z" transform="translate(-163.99 -133.18)"/><path class="cls-1" d="M260.23,406.41c0-.1.07-.2.1-.3h0c0,.1-.07.2-.1.3Z" transform="translate(-163.99 -133.18)"/><path class="cls-1" d="M261.47,406.12a259.11,259.11,0,0,1,10.39-29.63c-.49,1.07-1,2.13-1.46,3.2l-.9,2.05c-1,2.41-2.06,4.83-3,7.28l-.18.45c-1,2.6-2,5.22-3,7.86-.24.67-.47,1.35-.71,2q-1.12,3.18-2.16,6.39l-.12.36Z" transform="translate(-163.99 -133.18)"/><path class="cls-1" d="M640.14,826.13l0-.23q-5,1.79-10.11,3.42C633.36,828.33,636.73,827.29,640.14,826.13Z" transform="translate(-163.99 -133.18)"/><path class="cls-1" d="M616.18,747l-.82.14a104.74,104.74,0,0,1-15.41,1q-17.18,0-27.32-10.53t-10.14-35.12v-215h71v-80h-71V304H448.54V407.43l-154-.83a284,284,0,0,0-13.11,79.65l167.15,1.17v215.4q0,29.89,5.78,52.91A274.3,274.3,0,0,0,616.18,747Z" transform="translate(-163.99 -133.18)"/><path class="cls-1" d="M260.23,406.41c-.12.4-.26.79-.38,1.19q-1.28,4-2.42,8.08c-.13.44-.24.89-.37,1.34q-.94,3.45-1.82,6.94c-.18.75-.37,1.49-.54,2.24-.6,2.48-1.17,5-1.69,7.49-.06.28-.13.56-.19.85-.58,2.79-1.1,5.6-1.59,8.41-.12.71-.23,1.42-.35,2.13-.38,2.25-.72,4.51-1,6.78-.09.69-.2,1.38-.29,2.06-.37,2.86-.72,5.72-1,8.6,0,.4-.07.79-.11,1.19q-.36,3.77-.61,7.56-.5,7.32-.61,14.74l2.45,0a314,314,0,0,1,11.71-79.61Z" transform="translate(-163.99 -133.18)"/><path class="cls-1" d="M229.66,485.89V475.31L164.8,485.89l86.08.14c0-.11-3.66.09-3.66,0Z" transform="translate(-163.99 -133.18)"/><path class="cls-1" d="M248.44,463.71c0-.4.07-.79.11-1.19C248.51,462.92,248.48,463.31,248.44,463.71Z" transform="translate(-163.99 -133.18)"/><path class="cls-1" d="M260.23,406.41c-.13.4-.26.79-.38,1.19.12-.4.26-.79.38-1.19Z" transform="translate(-163.99 -133.18)"/><path class="cls-1" d="M257.06,417c.13-.45.24-.9.37-1.34C257.3,416.12,257.19,416.57,257.06,417Z" transform="translate(-163.99 -133.18)"/><path class="cls-1" d="M247.73,472.45c-.37,5.81-.56-5.9-.56,0l-17.51,2.86v10.58l17.56.12q.1-7.41.61-14.74C247.8,471.67,247.76,472.06,247.73,472.45Z" transform="translate(-163.99 -133.18)"/><path class="cls-1" d="M249.55,453.92c.09-.68.2-1.37.29-2.06C249.75,452.55,249.64,453.24,249.55,453.92Z" transform="translate(-163.99 -133.18)"/><path class="cls-1" d="M249.67,486l-2.45,0v.33h2.44C249.67,486.24,249.67,486.14,249.67,486Z" transform="translate(-163.99 -133.18)"/><path class="cls-1" d="M250.88,445.08c.12-.71.23-1.42.35-2.13C251.11,443.66,251,444.37,250.88,445.08Z" transform="translate(-163.99 -133.18)"/><path class="cls-1" d="M254.7,426.2c.17-.75.36-1.49.54-2.24C255.06,424.71,254.87,425.45,254.7,426.2Z" transform="translate(-163.99 -133.18)"/><path class="cls-1" d="M252.82,434.54c.06-.29.13-.57.19-.85C253,434,252.88,434.25,252.82,434.54Z" transform="translate(-163.99 -133.18)"/><path class="cls-1" d="M448.54,487.42l-167.15-1.17v.27Z" transform="translate(-163.99 -133.18)"/><path class="cls-1" d="M877.47,490c0-196.48-159.85-356.34-356.34-356.34-116,0-219.21,55.71-284.32,141.78q-8.07,10.67-15.34,21.94C185.62,353,164.8,415,164.8,485.89l33.89-79.81,31,.17v-.35l30.67.21.12-.36q1-3.21,2.16-6.39c.24-.68.47-1.36.71-2,1-2.64,1.94-5.26,3-7.86l.18-.45c1-2.45,2-4.87,3-7.28l.9-2.05c.58-1.32,1.17-2.64,1.77-3.95a148.26,148.26,0,0,1,7.7-15.8l.16.09c.54-1,1.1-2,1.65-3,.35-.63.69-1.25,1-1.86q4.11-7.24,8.64-14.2c.39-.6.78-1.19,1.18-1.78,1.25-1.9,2.54-3.79,3.84-5.66.22-.31.43-.64.65-.95.09-.14.19-.27.29-.4,1.46-2.06,2.93-4.1,4.44-6.12l.09-.11c1.46-2,2.95-3.87,4.46-5.78l1.36-1.68c1.12-1.39,2.25-2.78,3.4-4.14.52-.63,1.06-1.26,1.59-1.89q1.71-2,3.45-4l1.52-1.72q2.14-2.37,4.34-4.7l.72-.77q2.58-2.71,5.25-5.37l1.28-1.25c1.35-1.32,2.71-2.64,4.08-3.94l1.8-1.67c1.26-1.16,2.52-2.31,3.8-3.45.61-.55,1.23-1.11,1.86-1.66,1.38-1.2,2.77-2.4,4.18-3.58.5-.42,1-.86,1.51-1.28q2.88-2.38,5.82-4.7c.22-.18.45-.35.68-.52q2.6-2,5.24-4c.63-.47,1.26-.92,1.9-1.38q2.09-1.53,4.2-3l2.13-1.47q2.13-1.47,4.29-2.88l2-1.31q2.74-1.78,5.54-3.49l.78-.49c2.13-1.3,4.28-2.56,6.45-3.81l1.82-1q2.37-1.34,4.75-2.62c.77-.41,1.54-.82,2.32-1.22,1.48-.78,3-1.55,4.48-2.3l2.33-1.16q2.49-1.22,5-2.38l1.81-.85c2.28-1,4.57-2.05,6.89-3l1.28-.53q2.84-1.18,5.71-2.3c.78-.31,1.57-.6,2.36-.9q2.4-.92,4.8-1.78l2.56-.9c1.64-.57,3.28-1.12,4.94-1.65.77-.26,1.55-.52,2.33-.76,2.21-.7,4.44-1.38,6.69-2l.59-.18c2.43-.69,4.89-1.35,7.36-2l2.25-.55c1.75-.43,3.49-.84,5.24-1.24l2.69-.59q2.5-.52,5-1c.88-.17,1.76-.35,2.65-.51,1.9-.35,3.8-.67,5.71-1,.65-.11,1.29-.23,1.94-.33q3.81-.58,7.67-1.08l1.75-.2c2-.23,4-.46,6-.65.89-.09,1.79-.17,2.69-.24,1.74-.16,3.49-.29,5.24-.41.95-.07,1.89-.13,2.84-.18,1.81-.11,3.64-.19,5.46-.26.84,0,1.66-.07,2.5-.09,2.64-.08,5.29-.13,8-.13,151.07,0,274,122.9,274,274,0,117.66-74.56,218.22-178.92,257a141.17,141.17,0,0,0,14.2-3.18l9.73,82.11C778.27,776.81,877.47,644.79,877.47,490Z" transform="translate(-163.99 -133.18)"/><path class="cls-1" d="M307.67,318.51c1.12-1.39,2.25-2.78,3.4-4.14C309.92,315.73,308.79,317.12,307.67,318.51Z" transform="translate(-163.99 -133.18)"/><path class="cls-1" d="M372.69,259.86q2.74-1.78,5.54-3.49Q375.44,258.08,372.69,259.86Z" transform="translate(-163.99 -133.18)"/><path class="cls-1" d="M366.42,264.05q2.13-1.47,4.29-2.88Q368.55,262.58,366.42,264.05Z" transform="translate(-163.99 -133.18)"/><path class="cls-1" d="M281.68,357.05c-.55,1-1.11,2-1.65,3l0,0C280.6,359,281.13,358,281.68,357.05Z" transform="translate(-163.99 -133.18)"/><path class="cls-1" d="M379,255.88c2.13-1.3,4.28-2.56,6.45-3.81C383.29,253.32,381.14,254.58,379,255.88Z" transform="translate(-163.99 -133.18)"/><path class="cls-1" d="M387.28,251.06q2.37-1.34,4.75-2.62Q389.65,249.73,387.28,251.06Z" transform="translate(-163.99 -133.18)"/><path class="cls-1" d="M260.33,406.11l-30.67-.21v.35l30.57.16C260.26,406.31,260.29,406.21,260.33,406.11Z" transform="translate(-163.99 -133.18)"/><path class="cls-1" d="M322.69,301.33q2.58-2.71,5.25-5.37Q325.27,298.62,322.69,301.33Z" transform="translate(-163.99 -133.18)"/><path class="cls-1" d="M317.63,306.8q2.14-2.37,4.34-4.7Q319.78,304.42,317.63,306.8Z" transform="translate(-163.99 -133.18)"/><path class="cls-1" d="M329.22,294.71c1.35-1.32,2.71-2.64,4.08-3.94C331.93,292.07,330.57,293.39,329.22,294.71Z" transform="translate(-163.99 -133.18)"/><path class="cls-1" d="M312.66,312.48q1.71-2,3.45-4Q314.37,310.49,312.66,312.48Z" transform="translate(-163.99 -133.18)"/><path class="cls-1" d="M360.09,268.54q2.09-1.53,4.2-3Q362.17,267,360.09,268.54Z" transform="translate(-163.99 -133.18)"/><path class="cls-1" d="M272.17,375.74c-.6,1.31-1.19,2.63-1.77,3.95.47-1.07,1-2.13,1.46-3.2Z" transform="translate(-163.99 -133.18)"/><path class="cls-1" d="M335.1,289.1c1.26-1.16,2.52-2.31,3.8-3.45C337.62,286.79,336.36,287.94,335.1,289.1Z" transform="translate(-163.99 -133.18)"/><path class="cls-1" d="M353,273.91q2.6-2,5.24-4Q355.55,271.89,353,273.91Z" transform="translate(-163.99 -133.18)"/><path class="cls-1" d="M346.45,279.13q2.88-2.38,5.82-4.7Q349.33,276.74,346.45,279.13Z" transform="translate(-163.99 -133.18)"/><path class="cls-1" d="M340.76,284c1.38-1.2,2.77-2.4,4.18-3.58C343.53,281.59,342.14,282.79,340.76,284Z" transform="translate(-163.99 -133.18)"/><path class="cls-1" d="M263.32,397.33c1-2.64,1.94-5.26,3-7.86C265.26,392.07,264.28,394.69,263.32,397.33Z" transform="translate(-163.99 -133.18)"/><path class="cls-1" d="M471.35,220.6c1.9-.35,3.8-.67,5.71-1C475.15,219.93,473.25,220.25,471.35,220.6Z" transform="translate(-163.99 -133.18)"/><path class="cls-1" d="M266.47,389c1-2.45,2-4.87,3-7.28C268.46,384.15,267.44,386.57,266.47,389Z" transform="translate(-163.99 -133.18)"/><path class="cls-1" d="M479,219.29q3.81-.58,7.67-1.08Q482.82,218.71,479,219.29Z" transform="translate(-163.99 -133.18)"/><path class="cls-1" d="M463.67,222.13q2.5-.52,5-1Q466.18,221.61,463.67,222.13Z" transform="translate(-163.99 -133.18)"/><path class="cls-1" d="M455.74,224c1.75-.43,3.49-.84,5.24-1.24C459.23,223.12,457.49,223.53,455.74,224Z" transform="translate(-163.99 -133.18)"/><path class="cls-1" d="M513.18,216.18c2.64-.08,5.29-.13,8-.13C518.47,216.05,515.82,216.1,513.18,216.18Z" transform="translate(-163.99 -133.18)"/><path class="cls-1" d="M260.45,405.75q1-3.21,2.16-6.39Q261.49,402.54,260.45,405.75Z" transform="translate(-163.99 -133.18)"/><path class="cls-1" d="M488.42,218c2-.23,4-.46,6-.65C492.43,217.55,490.43,217.78,488.42,218Z" transform="translate(-163.99 -133.18)"/><path class="cls-1" d="M282.72,355.19q4.11-7.24,8.64-14.2Q286.85,347.94,282.72,355.19Z" transform="translate(-163.99 -133.18)"/><path class="cls-1" d="M505.22,216.53c1.81-.11,3.64-.19,5.46-.26C508.86,216.34,507,216.42,505.22,216.53Z" transform="translate(-163.99 -133.18)"/><path class="cls-1" d="M497.14,217.12c1.74-.16,3.49-.29,5.24-.41C500.63,216.83,498.88,217,497.14,217.12Z" transform="translate(-163.99 -133.18)"/><path class="cls-1" d="M416.15,237q2.84-1.18,5.71-2.3Q419,235.79,416.15,237Z" transform="translate(-163.99 -133.18)"/><path class="cls-1" d="M408,240.53c2.28-1,4.57-2.05,6.89-3C412.55,238.48,410.26,239.5,408,240.53Z" transform="translate(-163.99 -133.18)"/><path class="cls-1" d="M424.22,233.78q2.4-.92,4.8-1.78Q426.62,232.87,424.22,233.78Z" transform="translate(-163.99 -133.18)"/><path class="cls-1" d="M394.35,247.22c1.48-.78,3-1.55,4.48-2.3C397.33,245.67,395.83,246.44,394.35,247.22Z" transform="translate(-163.99 -133.18)"/><path class="cls-1" d="M301.85,326c1.46-2,2.95-3.87,4.46-5.78C304.8,322.1,303.31,324,301.85,326Z" transform="translate(-163.99 -133.18)"/><path class="cls-1" d="M401.16,243.76q2.49-1.22,5-2.38Q403.65,242.55,401.16,243.76Z" transform="translate(-163.99 -133.18)"/><path class="cls-1" d="M438.85,228.69c2.21-.7,4.44-1.38,6.69-2C443.29,227.31,441.06,228,438.85,228.69Z" transform="translate(-163.99 -133.18)"/><path class="cls-1" d="M292.54,339.21c1.25-1.9,2.54-3.79,3.84-5.66C295.08,335.42,293.79,337.31,292.54,339.21Z" transform="translate(-163.99 -133.18)"/><path class="cls-1" d="M446.13,226.49c2.43-.69,4.89-1.35,7.36-2C451,225.14,448.56,225.8,446.13,226.49Z" transform="translate(-163.99 -133.18)"/><path class="cls-1" d="M297.32,332.2c1.46-2.06,2.93-4.1,4.44-6.12C300.25,328.1,298.78,330.14,297.32,332.2Z" transform="translate(-163.99 -133.18)"/><path class="cls-1" d="M431.58,231.1c1.64-.57,3.28-1.12,4.94-1.65C434.86,230,433.22,230.53,431.58,231.1Z" transform="translate(-163.99 -133.18)"/><polygon class="cls-1" points="65.68 273.06 34.7 272.9 0.81 352.71 65.68 342.13 65.68 273.06"/><path class="cls-1" d="M251.23,443c.49-2.81,1-5.62,1.59-8.41C252.24,437.33,251.72,440.13,251.23,443Z" transform="translate(-163.99 -133.18)"/><path class="cls-1" d="M247.83,471.27q.25-3.79.61-7.56Q248.08,467.48,247.83,471.27Z" transform="translate(-163.99 -133.18)"/><path class="cls-1" d="M253,433.69c.52-2.51,1.09-5,1.69-7.49C254.1,428.68,253.53,431.18,253,433.69Z" transform="translate(-163.99 -133.18)"/><path class="cls-1" d="M257.43,415.68q1.14-4.06,2.42-8.08Q258.58,411.62,257.43,415.68Z" transform="translate(-163.99 -133.18)"/><path class="cls-1" d="M248.55,462.52c.28-2.88.63-5.74,1-8.6C249.17,456.78,248.83,459.64,248.55,462.52Z" transform="translate(-163.99 -133.18)"/><path class="cls-1" d="M255.24,424q.87-3.49,1.82-6.94Q256.12,420.47,255.24,424Z" transform="translate(-163.99 -133.18)"/><path class="cls-1" d="M249.84,451.86c.32-2.27.66-4.53,1-6.78C250.5,447.33,250.16,449.59,249.84,451.86Z" transform="translate(-163.99 -133.18)"/><path class="cls-1" d="M247.17,472.45c0-5.9.19,5.81.56,0,0-.39.07-.78.1-1.18q.25-3.79.61-7.56c0-.4.07-.79.11-1.19.28-2.88.62-5.74,1-8.6.09-.68.2-1.37.29-2.06.32-2.27.66-4.53,1-6.78.12-.71.23-1.42.35-2.13.49-2.82,1-5.62,1.59-8.41.06-.29.13-.57.19-.85.52-2.51,1.09-5,1.69-7.49.17-.75.36-1.49.54-2.24q.87-3.49,1.82-6.94c.13-.45.24-.9.37-1.34q1.14-4.06,2.42-8.08c.12-.4.25-.79.38-1.19l-30.57-.16v69.06Z" transform="translate(-163.99 -133.18)"/><path class="cls-2" d="M616.18,747a274.3,274.3,0,0,1-161.86,8.76q7.79,31.08,26,49.72L630,829.32q5.09-1.64,10.11-3.42l-9.73-82.11A141.17,141.17,0,0,1,616.18,747Z" transform="translate(-163.99 -133.18)"/><path class="cls-3" d="M616.18,747a274.3,274.3,0,0,1-161.86,8.76q7.79,31.08,26,49.72L630,829.32q5.09-1.64,10.11-3.42l-9.73-82.11A141.17,141.17,0,0,1,616.18,747Z" transform="translate(-163.99 -133.18)"/><path class="cls-2" d="M616.18,747a274.3,274.3,0,0,1-161.86,8.76q7.79,31.08,26,49.72L630,829.32q5.09-1.64,10.11-3.42l-9.73-82.11A141.17,141.17,0,0,1,616.18,747Z" transform="translate(-163.99 -133.18)"/><path class="cls-1" d="M571.07,837.83a202.37,202.37,0,0,0,35.51-2.92A220.79,220.79,0,0,0,630,829.32L480.35,805.45Q512.15,837.83,571.07,837.83Z" transform="translate(-163.99 -133.18)"/><path class="cls-1" d="M273.28,373.39c.21-.47.43-.93.65-1.39C273.71,372.46,273.49,372.92,273.28,373.39Z" transform="translate(-163.99 -133.18)"/><path class="cls-1" d="M277.64,364.55l.83-1.57Z" transform="translate(-163.99 -133.18)"/><path class="cls-1" d="M249.67,486c0,.11,0,.21,0,.32" transform="translate(-163.99 -133.18)"/><path class="cls-1" d="M281.39,486.52v-.27" transform="translate(-163.99 -133.18)"/><path class="cls-1" d="M273.93,372c1.2-2.51,2.43-5,3.71-7.45l.83-1.57c.51-1,1-2,1.56-3l-.16-.09a148.26,148.26,0,0,0-7.7,15.8l1.11-2.35C273.49,372.92,273.71,372.46,273.93,372Z" transform="translate(-163.99 -133.18)"/><path class="cls-1" d="M280.06,360.05l0,0c-.53,1-1,2-1.56,3C279,362,279.53,361,280.06,360.05Z" transform="translate(-163.99 -133.18)"/><path class="cls-1" d="M273.28,373.39l-1.11,2.35-.31.75C272.33,375.46,272.79,374.41,273.28,373.39Z" transform="translate(-163.99 -133.18)"/><path class="cls-1" d="M273.93,372c1.2-2.51,2.43-5,3.71-7.45C276.36,367,275.13,369.49,273.93,372Z" transform="translate(-163.99 -133.18)"/><text x="-163.99" y="-133.18"/></svg>