<svg id="Layer_1" data-name="Layer 1" xmlns="http://www.w3.org/2000/svg" viewBox="0 0 801.31 791.44"><defs><style>.cls-1,.cls-2{fill:#cc1331;}.cls-1,.cls-3{stroke:#cc1331;stroke-miterlimit:10;}.cls-3{fill:none;}</style></defs><title>teaco-logo</title><path class="cls-1" d="M392.71,233.33c.48-.21,1-.39,1.44-.59C393.67,232.94,393.19,233.12,392.71,233.33Z" transform="translate(-111.19 -116.28)"/><path class="cls-1" d="M400.56,230.15l2.65-1Z" transform="translate(-111.19 -116.28)"/><path class="cls-1" d="M382.94,237.67l2-.95Z" transform="translate(-111.19 -116.28)"/><path class="cls-1" d="M408.6,227.15l2.87-1Z" transform="translate(-111.19 -116.28)"/><path class="cls-1" d="M500.26,209.49l2.81-.11Z" transform="translate(-111.19 -116.28)"/><path class="cls-1" d="M417,224.28c.87-.29,1.74-.58,2.62-.85C418.75,223.7,417.88,224,417,224.28Z" transform="translate(-111.19 -116.28)"/><path class="cls-1" d="M359.7,249.68c.68-.39,1.36-.76,2-1.14C361.06,248.92,360.38,249.29,359.7,249.68Z" transform="translate(-111.19 -116.28)"/><path class="cls-1" d="M374.71,241.65l2.62-1.31Z" transform="translate(-111.19 -116.28)"/><path class="cls-1" d="M343.14,259.89c.74-.49,1.48-1,2.22-1.47C344.62,258.9,343.88,259.4,343.14,259.89Z" transform="translate(-111.19 -116.28)"/><path class="cls-1" d="M367.08,245.6l2.59-1.37Z" transform="translate(-111.19 -116.28)"/><path class="cls-1" d="M482,210.71l3-.27Z" transform="translate(-111.19 -116.28)"/><path class="cls-1" d="M473.31,211.67l2-.23Z" transform="translate(-111.19 -116.28)"/><path class="cls-1" d="M462.53,213.24c.72-.11,1.44-.25,2.17-.36C464,213,463.25,213.13,462.53,213.24Z" transform="translate(-111.19 -116.28)"/><path class="cls-1" d="M427.14,221.16l.66-.2Z" transform="translate(-111.19 -116.28)"/><path class="cls-1" d="M491,210l3.18-.2Z" transform="translate(-111.19 -116.28)"/><path class="cls-1" d="M436.06,218.74l2.54-.62Z" transform="translate(-111.19 -116.28)"/><path class="cls-1" d="M444.48,216.73c1-.23,2-.44,3-.66C446.49,216.29,445.48,216.5,444.48,216.73Z" transform="translate(-111.19 -116.28)"/><path class="cls-1" d="M453.13,214.92l3-.57Z" transform="translate(-111.19 -116.28)"/><path class="cls-1" d="M335.94,264.77l2.39-1.65Z" transform="translate(-111.19 -116.28)"/><path class="cls-1" d="M254.07,349.49l1.32-2Z" transform="translate(-111.19 -116.28)"/><path class="cls-1" d="M265.75,332.76l.09-.13Z" transform="translate(-111.19 -116.28)"/><path class="cls-1" d="M260.43,340.07c-.25.36-.48.72-.73,1.07.36-.5.7-1,1.06-1.52Z" transform="translate(-111.19 -116.28)"/><path class="cls-1" d="M276.19,319.61l1.79-2.13Z" transform="translate(-111.19 -116.28)"/><path class="cls-1" d="M221.79,415c.27-.76.53-1.53.81-2.29C222.32,413.49,222.06,414.26,221.79,415Z" transform="translate(-111.19 -116.28)"/><path class="cls-1" d="M243.2,367.51l1.17-2.08Z" transform="translate(-111.19 -116.28)"/><path class="cls-1" d="M225.92,403.91c.07-.17.14-.33.2-.5C226.06,403.58,226,403.74,225.92,403.91Z" transform="translate(-111.19 -116.28)"/><path class="cls-1" d="M229.53,395.23c.33-.77.67-1.53,1-2.3C230.2,393.7,229.86,394.46,229.53,395.23Z" transform="translate(-111.19 -116.28)"/><path class="cls-1" d="M270.85,326.14l1.53-1.89Z" transform="translate(-111.19 -116.28)"/><path class="cls-1" d="M322.44,274.77l.76-.58Z" transform="translate(-111.19 -116.28)"/><path class="cls-1" d="M307.43,287.37c.69-.62,1.39-1.25,2.09-1.86Z" transform="translate(-111.19 -116.28)"/><path class="cls-1" d="M314.21,281.49l1.7-1.44Z" transform="translate(-111.19 -116.28)"/><path class="cls-1" d="M329.08,269.71l2.13-1.55Z" transform="translate(-111.19 -116.28)"/><path class="cls-1" d="M301.15,293.12l2-1.88Z" transform="translate(-111.19 -116.28)"/><path class="cls-1" d="M281.85,313c.57-.64,1.13-1.29,1.71-1.93C283,311.75,282.42,312.4,281.85,313Z" transform="translate(-111.19 -116.28)"/><path class="cls-1" d="M288.43,305.84l.8-.87Z" transform="translate(-111.19 -116.28)"/><path class="cls-1" d="M295.13,298.94l1.43-1.4Z" transform="translate(-111.19 -116.28)"/><path class="cls-1" d="M351.58,254.5l.87-.55Z" transform="translate(-111.19 -116.28)"/><path class="cls-1" d="M220.51,422.6h-1.27c0,.12-.08.23-.11.34h1.28A3.37,3.37,0,0,0,220.51,422.6Z" transform="translate(-111.19 -116.28)"/><path class="cls-1" d="M219.37,422.18c0,.14-.09.28-.14.41h0C219.28,422.46,219.33,422.32,219.37,422.18Z" transform="translate(-111.19 -116.28)"/><path class="cls-1" d="M298,423.14l132.51.93-132.42-1.21Z" transform="translate(-111.19 -116.28)"/><path class="cls-1" d="M219.13,422.93c0-.11.07-.22.11-.34h0c0,.12-.08.23-.11.34Z" transform="translate(-111.19 -116.28)"/><path class="cls-1" d="M220.51,422.6a292.51,292.51,0,0,1,11.66-33.25c-.54,1.19-1.1,2.38-1.64,3.58-.33.77-.67,1.53-1,2.3-1.17,2.71-2.31,5.43-3.41,8.18-.06.17-.13.33-.2.5q-1.74,4.38-3.32,8.82c-.28.76-.54,1.53-.81,2.29-.84,2.37-1.64,4.76-2.42,7.16,0,.14-.09.28-.13.41Z" transform="translate(-111.19 -116.28)"/><path class="cls-1" d="M645.59,894.08l0-.26q-5.64,2-11.35,3.85C638,896.56,641.76,895.38,645.59,894.08Z" transform="translate(-111.19 -116.28)"/><path class="cls-1" d="M618.7,805.22l-.93.16a117.51,117.51,0,0,1-17.3,1.09q-19.28,0-30.66-11.83t-11.39-39.42V513.87h79.72v-89.8H558.42V308H430.51V424.07L298,423.14a319.14,319.14,0,0,0-14.71,89.41l147.22,1.32V755.66q0,33.55,6.49,59.39a307.77,307.77,0,0,0,181.7-9.83Z" transform="translate(-111.19 -116.28)"/><path class="cls-1" d="M219.13,422.93c-.15.45-.3.89-.44,1.33-.95,3-1.86,6-2.71,9.07-.15.5-.28,1-.41,1.51q-1.08,3.87-2,7.79c-.21.84-.41,1.67-.61,2.51-.67,2.79-1.31,5.59-1.9,8.41-.06.32-.14.64-.2,1-.65,3.13-1.24,6.28-1.79,9.44-.14.79-.26,1.59-.4,2.38-.42,2.53-.8,5.07-1.16,7.62-.11.77-.22,1.54-.32,2.32q-.64,4.8-1.13,9.65c0,.44-.08.88-.12,1.33q-.4,4.23-.69,8.49-.55,8.22-.68,16.55l2.75,0a352.55,352.55,0,0,1,13.14-89.37Z" transform="translate(-111.19 -116.28)"/><path class="cls-1" d="M184.81,512.15V500.27L112,512.15l96.62.16c0-.13-4.1.1-4.1,0Z" transform="translate(-111.19 -116.28)"/><path class="cls-1" d="M205.89,487.25c0-.45.07-.89.12-1.33C206,486.36,205.93,486.8,205.89,487.25Z" transform="translate(-111.19 -116.28)"/><path class="cls-1" d="M219.12,422.93c-.15.45-.29.89-.43,1.33.14-.44.29-.88.44-1.33Z" transform="translate(-111.19 -116.28)"/><path class="cls-1" d="M215.57,434.84c.13-.51.26-1,.41-1.51C215.83,433.83,215.7,434.33,215.57,434.84Z" transform="translate(-111.19 -116.28)"/><path class="cls-1" d="M205.09,497.06c-.41,6.53-.63-6.62-.63,0l-19.65,3.21v11.88l19.71.14q.12-8.34.68-16.55C205.17,496.18,205.12,496.62,205.09,497.06Z" transform="translate(-111.19 -116.28)"/><path class="cls-1" d="M207.14,476.27c.1-.78.21-1.55.32-2.32C207.35,474.72,207.24,475.49,207.14,476.27Z" transform="translate(-111.19 -116.28)"/><path class="cls-1" d="M207.27,512.31l-2.75,0v.36h2.74C207.26,512.54,207.27,512.42,207.27,512.31Z" transform="translate(-111.19 -116.28)"/><path class="cls-1" d="M208.62,466.33c.14-.79.26-1.59.4-2.38C208.88,464.74,208.76,465.54,208.62,466.33Z" transform="translate(-111.19 -116.28)"/><path class="cls-1" d="M212.91,445.14c.2-.84.4-1.67.61-2.51C213.31,443.47,213.11,444.3,212.91,445.14Z" transform="translate(-111.19 -116.28)"/><path class="cls-1" d="M210.81,454.51c.06-.32.14-.64.2-1C211,453.87,210.87,454.19,210.81,454.51Z" transform="translate(-111.19 -116.28)"/><path class="cls-1" d="M430.51,513.87l-147.22-1.32c0,.1,0,.2,0,.3Z" transform="translate(-111.19 -116.28)"/><path class="cls-1" d="M912,516.78c0-220.56-179.44-400-400-400-130.21,0-246.08,62.53-319.17,159.15q-9.06,12-17.22,24.63C135.37,363,112,432.55,112,512.15l38-89.59,34.77.19v-.4l34.42.24c.05-.13.1-.27.14-.41.78-2.4,1.58-4.79,2.42-7.16.27-.76.53-1.53.81-2.29q1.59-4.44,3.32-8.82c.07-.17.14-.33.2-.5,1.1-2.75,2.24-5.47,3.41-8.18.33-.77.67-1.53,1-2.3.66-1.48,1.32-3,2-4.43a164.52,164.52,0,0,1,8.64-17.74l.17.1c.61-1.12,1.24-2.23,1.86-3.35l1.17-2.08q4.62-8.13,9.7-15.94l1.32-2q2.12-3.19,4.31-6.35c.25-.35.48-.71.73-1.07l.33-.45q2.44-3.47,5-6.86l.09-.13c1.64-2.19,3.32-4.35,5-6.49l1.53-1.89q1.88-2.34,3.81-4.64l1.79-2.13c1.28-1.49,2.56-3,3.87-4.44.57-.64,1.13-1.29,1.71-1.93,1.6-1.78,3.23-3.53,4.87-5.27l.8-.87q2.91-3,5.9-6l1.43-1.4c1.52-1.48,3-3,4.59-4.42l2-1.88c1.41-1.3,2.82-2.59,4.26-3.87l2.09-1.86q2.33-2,4.69-4l1.7-1.44c2.15-1.78,4.33-3.55,6.53-5.28l.76-.58c1.94-1.52,3.91-3,5.88-4.48l2.13-1.55c1.57-1.14,3.14-2.27,4.73-3.39l2.39-1.65q2.39-1.64,4.81-3.23c.74-.49,1.48-1,2.22-1.47q3.09-2,6.22-3.92l.87-.55q3.6-2.19,7.25-4.27c.68-.39,1.36-.76,2-1.14q2.65-1.5,5.34-2.94l2.59-1.37q2.5-1.32,5-2.58l2.62-1.31c1.86-.91,3.73-1.79,5.61-2.67l2-.95c2.56-1.16,5.14-2.3,7.74-3.39.48-.21,1-.39,1.44-.59q3.18-1.34,6.41-2.59l2.65-1c1.79-.68,3.59-1.35,5.39-2l2.87-1q2.76-1,5.54-1.86c.87-.29,1.74-.58,2.62-.85q3.74-1.19,7.51-2.27l.66-.2c2.74-.78,5.49-1.51,8.26-2.22l2.54-.62c1.95-.48,3.91-1,5.88-1.39,1-.23,2-.44,3-.66q2.81-.6,5.63-1.15l3-.57q3.19-.58,6.42-1.11c.72-.11,1.44-.25,2.17-.36,2.86-.44,5.73-.85,8.61-1.21l2-.23c2.25-.26,4.5-.51,6.76-.73l3-.27c1.95-.17,3.91-.33,5.88-.46l3.18-.2c2-.12,4.09-.21,6.13-.29l2.81-.11c3-.08,5.94-.14,8.93-.14,169.58,0,307.54,138,307.54,307.54,0,132.08-83.71,245-200.84,288.44a153.84,153.84,0,0,0,15.94-3.57l10.92,92.17C800.64,838.72,912,690.52,912,516.78Z" transform="translate(-111.19 -116.28)"/><path class="cls-1" d="M272.38,324.25q1.88-2.34,3.81-4.64Q274.26,321.9,272.38,324.25Z" transform="translate(-111.19 -116.28)"/><path class="cls-1" d="M345.36,258.42q3.09-2,6.22-3.92Q348.45,256.42,345.36,258.42Z" transform="translate(-111.19 -116.28)"/><path class="cls-1" d="M338.33,263.12q2.39-1.64,4.81-3.23Q340.71,261.48,338.33,263.12Z" transform="translate(-111.19 -116.28)"/><path class="cls-1" d="M243.2,367.51c-.62,1.12-1.25,2.23-1.86,3.35l0,0C242,369.76,242.58,368.63,243.2,367.51Z" transform="translate(-111.19 -116.28)"/><path class="cls-1" d="M352.45,254q3.6-2.19,7.25-4.27Q356.05,251.77,352.45,254Z" transform="translate(-111.19 -116.28)"/><path class="cls-1" d="M361.74,248.54q2.65-1.5,5.34-2.94Q364.4,247,361.74,248.54Z" transform="translate(-111.19 -116.28)"/><path class="cls-1" d="M219.23,422.59l-34.42-.24v.4l34.31.18C219.15,422.82,219.19,422.71,219.23,422.59Z" transform="translate(-111.19 -116.28)"/><path class="cls-1" d="M289.23,305q2.91-3,5.9-6Q292.15,301.93,289.23,305Z" transform="translate(-111.19 -116.28)"/><path class="cls-1" d="M283.56,311.11c1.6-1.78,3.23-3.53,4.87-5.27C286.79,307.58,285.16,309.33,283.56,311.11Z" transform="translate(-111.19 -116.28)"/><path class="cls-1" d="M296.56,297.54c1.52-1.48,3-3,4.59-4.42C299.6,294.58,298.08,296.06,296.56,297.54Z" transform="translate(-111.19 -116.28)"/><path class="cls-1" d="M278,317.48c1.28-1.49,2.56-3,3.87-4.44C280.54,314.51,279.26,316,278,317.48Z" transform="translate(-111.19 -116.28)"/><path class="cls-1" d="M331.21,268.16c1.57-1.14,3.14-2.27,4.73-3.39C334.35,265.89,332.78,267,331.21,268.16Z" transform="translate(-111.19 -116.28)"/><path class="cls-1" d="M232.53,388.5c-.68,1.47-1.34,2.95-2,4.43.54-1.2,1.1-2.39,1.64-3.58Z" transform="translate(-111.19 -116.28)"/><path class="cls-1" d="M303.17,291.24c1.41-1.3,2.82-2.59,4.26-3.87C306,288.65,304.58,289.94,303.17,291.24Z" transform="translate(-111.19 -116.28)"/><path class="cls-1" d="M323.2,274.19c1.94-1.52,3.91-3,5.88-4.48C327.11,271.18,325.14,272.67,323.2,274.19Z" transform="translate(-111.19 -116.28)"/><path class="cls-1" d="M315.91,280.05c2.15-1.78,4.33-3.55,6.53-5.28C320.24,276.5,318.06,278.27,315.91,280.05Z" transform="translate(-111.19 -116.28)"/><path class="cls-1" d="M309.52,285.51q2.33-2,4.69-4Q311.84,283.47,309.52,285.51Z" transform="translate(-111.19 -116.28)"/><path class="cls-1" d="M222.6,412.73q1.59-4.44,3.32-8.82Q224.18,408.29,222.6,412.73Z" transform="translate(-111.19 -116.28)"/><path class="cls-1" d="M456.11,214.35q3.19-.58,6.42-1.11Q459.31,213.77,456.11,214.35Z" transform="translate(-111.19 -116.28)"/><path class="cls-1" d="M226.12,403.41c1.1-2.75,2.24-5.47,3.41-8.18C228.36,397.94,227.22,400.66,226.12,403.41Z" transform="translate(-111.19 -116.28)"/><path class="cls-1" d="M464.7,212.88c2.86-.44,5.73-.85,8.61-1.21C470.43,212,467.56,212.44,464.7,212.88Z" transform="translate(-111.19 -116.28)"/><path class="cls-1" d="M447.5,216.07q2.81-.6,5.63-1.15Q450.31,215.48,447.5,216.07Z" transform="translate(-111.19 -116.28)"/><path class="cls-1" d="M438.6,218.12c1.95-.48,3.91-1,5.88-1.39C442.51,217.17,440.55,217.64,438.6,218.12Z" transform="translate(-111.19 -116.28)"/><path class="cls-1" d="M503.07,209.38c3-.08,5.94-.14,8.93-.14C509,209.24,506,209.3,503.07,209.38Z" transform="translate(-111.19 -116.28)"/><path class="cls-1" d="M219.37,422.18c.78-2.4,1.58-4.79,2.42-7.16C221,417.39,220.15,419.78,219.37,422.18Z" transform="translate(-111.19 -116.28)"/><path class="cls-1" d="M475.28,211.44c2.25-.26,4.5-.51,6.76-.73C479.78,210.93,477.53,211.18,475.28,211.44Z" transform="translate(-111.19 -116.28)"/><path class="cls-1" d="M244.37,365.43q4.62-8.13,9.7-15.94Q249,357.29,244.37,365.43Z" transform="translate(-111.19 -116.28)"/><path class="cls-1" d="M494.13,209.78c2-.12,4.09-.21,6.13-.29C498.22,209.57,496.17,209.66,494.13,209.78Z" transform="translate(-111.19 -116.28)"/><path class="cls-1" d="M485.07,210.44c1.95-.17,3.91-.33,5.88-.46C489,210.11,487,210.27,485.07,210.44Z" transform="translate(-111.19 -116.28)"/><path class="cls-1" d="M394.15,232.74q3.18-1.34,6.41-2.59Q397.34,231.41,394.15,232.74Z" transform="translate(-111.19 -116.28)"/><path class="cls-1" d="M385,236.72c2.56-1.16,5.14-2.3,7.74-3.39C390.11,234.42,387.53,235.56,385,236.72Z" transform="translate(-111.19 -116.28)"/><path class="cls-1" d="M403.21,229.14c1.79-.68,3.59-1.35,5.39-2C406.8,227.79,405,228.46,403.21,229.14Z" transform="translate(-111.19 -116.28)"/><path class="cls-1" d="M369.67,244.23q2.5-1.32,5-2.58Q372.17,242.91,369.67,244.23Z" transform="translate(-111.19 -116.28)"/><path class="cls-1" d="M265.84,332.63c1.64-2.19,3.32-4.35,5-6.49C269.16,328.28,267.48,330.44,265.84,332.63Z" transform="translate(-111.19 -116.28)"/><path class="cls-1" d="M377.33,240.34c1.86-.91,3.73-1.79,5.61-2.67C381.06,238.55,379.19,239.43,377.33,240.34Z" transform="translate(-111.19 -116.28)"/><path class="cls-1" d="M419.63,223.43q3.74-1.19,7.51-2.27Q423.36,222.24,419.63,223.43Z" transform="translate(-111.19 -116.28)"/><path class="cls-1" d="M255.39,347.49q2.12-3.19,4.31-6.35Q257.51,344.29,255.39,347.49Z" transform="translate(-111.19 -116.28)"/><path class="cls-1" d="M427.8,221c2.74-.78,5.49-1.51,8.26-2.22C433.29,219.45,430.54,220.18,427.8,221Z" transform="translate(-111.19 -116.28)"/><path class="cls-1" d="M260.76,339.62q2.44-3.47,5-6.86Q263.2,336.15,260.76,339.62Z" transform="translate(-111.19 -116.28)"/><path class="cls-1" d="M411.47,226.14q2.76-1,5.54-1.86Q414.24,225.18,411.47,226.14Z" transform="translate(-111.19 -116.28)"/><polygon class="cls-1" points="73.63 306.47 38.85 306.28 0.81 395.87 73.63 383.99 73.63 306.47"/><path class="cls-1" d="M209,464c.55-3.16,1.14-6.31,1.79-9.44C210.16,457.64,209.57,460.79,209,464Z" transform="translate(-111.19 -116.28)"/><path class="cls-1" d="M205.2,495.74q.28-4.26.69-8.49Q205.49,491.48,205.2,495.74Z" transform="translate(-111.19 -116.28)"/><path class="cls-1" d="M211,453.55c.59-2.82,1.23-5.62,1.9-8.41C212.24,447.93,211.6,450.73,211,453.55Z" transform="translate(-111.19 -116.28)"/><path class="cls-1" d="M216,433.33c.85-3,1.76-6.06,2.71-9.07C217.74,427.27,216.83,430.29,216,433.33Z" transform="translate(-111.19 -116.28)"/><path class="cls-1" d="M206,485.92q.48-4.85,1.13-9.65Q206.5,481.07,206,485.92Z" transform="translate(-111.19 -116.28)"/><path class="cls-1" d="M213.52,442.63q1-3.92,2-7.79Q214.49,438.71,213.52,442.63Z" transform="translate(-111.19 -116.28)"/><path class="cls-1" d="M207.46,474c.36-2.55.74-5.09,1.16-7.62C208.2,468.86,207.82,471.4,207.46,474Z" transform="translate(-111.19 -116.28)"/><path class="cls-1" d="M204.46,497.06c0-6.62.22,6.53.63,0,0-.44.08-.88.11-1.32q.28-4.26.69-8.49c0-.45.07-.89.12-1.33q.48-4.85,1.13-9.65c.1-.78.21-1.55.32-2.32.36-2.55.74-5.09,1.16-7.62.14-.79.26-1.59.4-2.38.55-3.16,1.14-6.31,1.79-9.44.06-.32.14-.64.2-1,.59-2.82,1.23-5.62,1.9-8.41.2-.84.4-1.67.61-2.51q1-3.92,2-7.79c.13-.51.26-1,.41-1.51.85-3,1.76-6.06,2.71-9.07.14-.44.28-.88.43-1.33l-34.31-.18v77.52Z" transform="translate(-111.19 -116.28)"/><path class="cls-2" d="M618.7,805.22A307.77,307.77,0,0,1,437,815.05q8.73,34.91,29.22,55.82l168,26.8q5.7-1.84,11.35-3.85l-10.92-92.17A153.84,153.84,0,0,1,618.7,805.22Z" transform="translate(-111.19 -116.28)"/><path class="cls-3" d="M618.7,805.22A307.77,307.77,0,0,1,437,815.05q8.73,34.91,29.22,55.82l168,26.8q5.7-1.84,11.35-3.85l-10.92-92.17A153.84,153.84,0,0,1,618.7,805.22Z" transform="translate(-111.19 -116.28)"/><path class="cls-2" d="M618.7,805.22A307.77,307.77,0,0,1,437,815.05q8.73,34.91,29.22,55.82l168,26.8q5.7-1.84,11.35-3.85l-10.92-92.17A153.84,153.84,0,0,1,618.7,805.22Z" transform="translate(-111.19 -116.28)"/><path class="cls-1" d="M568.06,907.22a228.11,228.11,0,0,0,39.86-3.28,250.84,250.84,0,0,0,26.29-6.27l-168-26.8Q501.91,907.22,568.06,907.22Z" transform="translate(-111.19 -116.28)"/><path class="cls-1" d="M233.77,385.86c.24-.52.48-1.05.73-1.56C234.25,384.82,234,385.34,233.77,385.86Z" transform="translate(-111.19 -116.28)"/><path class="cls-1" d="M238.66,375.94l.93-1.76Z" transform="translate(-111.19 -116.28)"/><path class="cls-1" d="M207.27,512.31c0,.11,0,.23,0,.35" transform="translate(-111.19 -116.28)"/><path class="cls-1" d="M283.28,512.85c0-.1,0-.2,0-.3" transform="translate(-111.19 -116.28)"/><path class="cls-1" d="M234.5,384.3q2-4.21,4.16-8.36l.93-1.76c.58-1.11,1.16-2.22,1.75-3.32l-.17-.1a164.52,164.52,0,0,0-8.64,17.74c.41-.88.82-1.76,1.24-2.64C234,385.34,234.25,384.82,234.5,384.3Z" transform="translate(-111.19 -116.28)"/><path class="cls-1" d="M241.38,370.88l0,0c-.59,1.1-1.17,2.21-1.75,3.32C240.17,373.07,240.78,372,241.38,370.88Z" transform="translate(-111.19 -116.28)"/><path class="cls-1" d="M233.77,385.86c-.42.88-.83,1.76-1.24,2.64l-.36.85C232.71,388.18,233.22,387,233.77,385.86Z" transform="translate(-111.19 -116.28)"/><path class="cls-1" d="M234.5,384.3q2-4.21,4.16-8.36Q236.52,380.08,234.5,384.3Z" transform="translate(-111.19 -116.28)"/><text x="-111.19" y="-116.28"/></svg>