<svg id="Capa_1" data-name="Capa 1" xmlns="http://www.w3.org/2000/svg" viewBox="0 0 256 223.4"><title>add-suggestion</title><g id="add-circle"><path d="M128,138.7a48.2,48.2,0,1,0,48.2,48.2A48.34,48.34,0,0,0,128,138.7Zm24.1,53H132.82V211h-9.64V191.72H103.9v-9.64h19.28V162.8h9.64v19.28H152.1Z" transform="translate(0 -11.7)"/></g><path d="M128,64a11.61,11.61,0,0,0,11.6-11.6V23.3a11.6,11.6,0,0,0-23.2,0v5.8H88.7V52.4h27.6A11.76,11.76,0,0,0,128,64Z" transform="translate(0 -11.7)"/><path d="M190.5,64a11.61,11.61,0,0,0,11.6-11.6V23.3a11.6,11.6,0,1,0-23.2,0v5.8H151.3V52.4h27.6A11.61,11.61,0,0,0,190.5,64Z" transform="translate(0 -11.7)"/><path d="M23.3,203.5V52.4H53.8a11.65,11.65,0,0,0,23.3,0V23.3a11.6,11.6,0,1,0-23.2,0v5.8H11.6A11.61,11.61,0,0,0,0,40.7V215.2a11.61,11.61,0,0,0,11.6,11.6H71.4a69.22,69.22,0,0,1-10.9-23.3Z" transform="translate(0 -11.7)"/><path d="M244.4,29.1H213.9V52.4h18.9V87.3h-.1V203.6H195.5a69.22,69.22,0,0,1-10.9,23.3h59.8A11.61,11.61,0,0,0,256,215.3V40.7A11.61,11.61,0,0,0,244.4,29.1Z" transform="translate(0 -11.7)"/><rect x="49.9" y="63.7" width="39" height="39"/><rect x="108.5" y="63.7" width="39" height="39"/><rect x="167" y="63.7" width="39" height="39"/><path d="M170,134a67.67,67.67,0,0,1,24.2,39H206V134Z" transform="translate(0 -11.7)"/><path d="M86,134H49.9v39H61.8A67.67,67.67,0,0,1,86,134Z" transform="translate(0 -11.7)"/></svg>