<svg id="Capa_1" data-name="Capa 1" xmlns="http://www.w3.org/2000/svg" viewBox="0 0 215.91 243.2"><title>add-participant</title><path d="M112.07,120.79a59.46,59.46,0,0,0,59.54-59.54C171.61,28.3,145,1,112.07,1S52.53,28.53,52.53,61.25A59.61,59.61,0,0,0,112.07,120.79Z" transform="translate(-28.29 -1)"/><path d="M196,147.8A48.2,48.2,0,1,0,244.2,196,48.34,48.34,0,0,0,196,147.8Zm24.1,53H200.82V220.1h-9.64V200.82H171.9v-9.64h19.28V171.9h9.64v19.28H220.1Z" transform="translate(-28.29 -1)"/><path d="M183.79,137.26a83,83,0,0,0-13.12-16.47,83,83,0,0,1-116.26,0C38.88,135.85,28.29,157,28.29,180.33V204.1a12,12,0,0,0,12,12h99.2A59.59,59.59,0,0,1,136,196,60.23,60.23,0,0,1,183.79,137.26Z" transform="translate(-28.29 -1)"/></svg>