<?xml version="1.0" encoding="utf-8"?>
<!-- Generator: Adobe Illustrator 23.0.1, SVG Export Plug-In . SVG Version: 6.00 Build 0)  -->
<svg version="1.1" id="Capa_1" xmlns="http://www.w3.org/2000/svg" xmlns:xlink="http://www.w3.org/1999/xlink" x="0px" y="0px"
	 viewBox="0 0 256 256" style="enable-background:new 0 0 256 256;" xml:space="preserve">
<title>closed-meetings</title>
<path d="M128,64c6.4,0,11.6-5.2,11.6-11.6V23.3c0-6.4-5.2-11.6-11.6-11.6c-6.4,0-11.6,5.2-11.6,11.6v5.8H88.7v23.3h27.6
	C116.4,58.8,121.6,64,128,64z"/>
<path d="M190.5,64c6.4,0,11.6-5.2,11.6-11.6V23.3c0-6.4-5.2-11.6-11.6-11.6c-6.4,0-11.6,5.2-11.6,11.6c0,0,0,0,0,0v5.8h-27.6v23.3
	h27.6C178.9,58.8,184.1,64,190.5,64z"/>
<path d="M23.3,203.5V52.4h30.5C53.8,58.8,59,64,65.4,64s11.7-5.2,11.7-11.7V23.3c0-6.4-5.2-11.6-11.6-11.6
	c-6.4,0-11.6,5.2-11.6,11.6c0,0,0,0,0,0v5.8H11.6C5.2,29.1,0,34.3,0,40.7v174.5c0,6.4,5.2,11.6,11.6,11.6h59.8
	c-5.1-7-8.8-14.9-10.9-23.3H23.3z"/>
<path d="M244.4,29.1h-30.5v23.3h18.9v34.9h-0.1v116.3h-37.2c-2.1,8.4-5.8,16.3-10.9,23.3h59.8c6.4,0,11.6-5.2,11.6-11.6V40.7
	C256,34.3,250.8,29.1,244.4,29.1z"/>
<rect x="49.9" y="75.4" width="39" height="39"/>
<rect x="108.5" y="75.4" width="39" height="39"/>
<rect x="167" y="75.4" width="39" height="39"/>
<path d="M128,138.7c-26.6,0-48.2,21.6-48.2,48.2s21.6,48.2,48.2,48.2s48.2-21.6,48.2-48.2S154.6,138.7,128,138.7z M123.2,210.5
	l-24.7-20.6l7.8-9.3l15.6,13l26.4-30.2l9.2,8L123.2,210.5z"/>
<path d="M170,134c12.4,9.8,20.9,23.6,24.2,39H206v-39H170z"/>
<path d="M86,134H49.9v39h11.9C65.1,157.6,73.6,143.8,86,134z"/>
</svg>
