<svg id="Capa_1" data-name="Capa 1" xmlns="http://www.w3.org/2000/svg" viewBox="0 0 490.56 512"><title>meeting-state-voting-voted</title><g id="Layer_1" data-name="Layer 1"><path d="M66.7,419.6V56H360.4V361.4l56-46.2V28a28,28,0,0,0-28-28H38.7a28,28,0,0,0-28,28V447.6a28,28,0,0,0,28,28H282.8l-39.5-55.9H66.7Z" transform="translate(-10.7)"/><path d="M496.9,300.8a13.91,13.91,0,0,0-18.5-.6l-128.3,106-85.5-51.3A14,14,0,0,0,245.9,375l92.7,131.1a13.8,13.8,0,0,0,11.3,5.9h.1a14.16,14.16,0,0,0,11.3-5.7L498.6,319.2A14,14,0,0,0,496.9,300.8Z" transform="translate(-10.7)"/><path d="M297.5,97.9H129.6a28,28,0,0,0,0,56H297.5a28,28,0,0,0,0-56Z" transform="translate(-10.7)"/><path d="M297.5,181.8H129.6a28,28,0,1,0,0,56H297.5a28,28,0,0,0,0-56Z" transform="translate(-10.7)"/><path d="M297.5,265.8H129.6a28,28,0,1,0,0,56H297.5a28,28,0,0,0,0-56Z" transform="translate(-10.7)"/></g></svg>