<svg id="Capa_1" data-name="Capa 1" xmlns="http://www.w3.org/2000/svg" viewBox="0 0 256 256"><defs><style>.cls-1{fill:none;stroke:#000;stroke-miterlimit:10;stroke-width:1.5px;}</style></defs><title>meeting-state-voting</title><path d="M203.1,120.6a37.5,37.5,0,1,0,37.5,37.5A37.45,37.45,0,0,0,203.1,120.6Z" transform="translate(0 0)"/><path d="M239.5,195.5a52.15,52.15,0,0,1-73.2,0A52.09,52.09,0,0,0,150.4,233v15.4A7.6,7.6,0,0,0,158,256h90.4a7.6,7.6,0,0,0,7.6-7.6V233C256,218.3,249.3,205,239.5,195.5Z" transform="translate(0 0)"/><path d="M53.1,0C32.3,0,15.6,17.4,15.6,38a37.5,37.5,0,0,0,75,0C90.6,17.3,73.8,0,53.1,0Z" transform="translate(0 0)"/><path d="M89.7,75.5a52.15,52.15,0,0,1-73.2,0C6.7,85,0,98.3,0,113v15a7.6,7.6,0,0,0,7.6,7.6H98a7.6,7.6,0,0,0,7.6-7.6V113A52.5,52.5,0,0,0,89.7,75.5Z" transform="translate(0 0)"/><path d="M128.1,210.5a82.64,82.64,0,0,1-79.3-59.9H33.4a97.55,97.55,0,0,0,94.7,74.9,76.87,76.87,0,0,0,8.3-.4,66.43,66.43,0,0,1,3.6-15.4A93.88,93.88,0,0,1,128.1,210.5Z" transform="translate(0 0)"/><path d="M240.1,36.3a4.5,4.5,0,0,0-2.7-2.7L157,.4a4.67,4.67,0,0,0-6.2,2.7L117.4,83.8a5.55,5.55,0,0,0,0,3.6,4.5,4.5,0,0,0,2.7,2.7l54.1,22.4a11.63,11.63,0,0,0,1.8.4,3.92,3.92,0,0,0,1.8-.4L215.2,97a4.5,4.5,0,0,0,2.7-2.7l22.4-54.1A6.47,6.47,0,0,0,240.1,36.3ZM184.7,99.1l4.7-11.6L201,92.2Zm26.1-12.9L188.6,77a4.67,4.67,0,0,0-6.2,2.7l-9.2,22.1L127.7,83l29.7-72,71.9,29.8Z" transform="translate(0 0)"/><path class="cls-1" d="M168.2,43.1,157,38.6a2,2,0,0,1-1.1-2.6l4.4-11.2a2,2,0,0,1,2.6-1.1l11.2,4.5a2,2,0,0,1,1.1,2.6L170.8,42A2,2,0,0,1,168.2,43.1Z" transform="translate(0 0)"/><path class="cls-1" d="M159.6,64.6l-11.2-4.5a2,2,0,0,1-1.1-2.6l4.4-11.2a2,2,0,0,1,2.6-1.1l11.2,4.5a2,2,0,0,1,1.1,2.6l-4.4,11.2A2,2,0,0,1,159.6,64.6Z" transform="translate(0 0)"/><path class="cls-1" d="M150.7,87l-11.2-4.5a2,2,0,0,1-1.1-2.6l4.4-11.2a2,2,0,0,1,2.6-1.1l11.2,4.5a2,2,0,0,1,1.1,2.6l-4.4,11.2A2,2,0,0,1,150.7,87Z" transform="translate(0 0)"/><polygon points="192.9 51.5 188.9 41.5 162.1 53 157.5 41.5 147.9 45.8 156.5 67.3 192.9 51.5"/></svg>