<svg id="Capa_1" data-name="Capa 1" xmlns="http://www.w3.org/2000/svg" viewBox="0 0 512 512"><defs><style>.cls-1{fill:#030104;}</style></defs><title>meeting</title><path class="cls-1" d="M383.45,108.06c19.91,0,36-15.79,36-35.45V35.52a36,36,0,0,0-72,0V72.63C347.46,92.27,363.55,108.06,383.45,108.06Z"/><path class="cls-1" d="M511.45,61.43H438.92V79.49c0,29.8-24.56,54.08-54.84,54.08s-54.83-24.28-54.83-54.08V61.43H182.9V79.49c0,29.8-24.6,54.08-54.87,54.08S73.18,109.31,73.18,79.49V61.43L0,60.53V512H475.45l36.55-.11Zm-36,414.62H36.6V187.63H475.45V476.05Z"/><path class="cls-1" d="M127.46,108.06c19.91,0,36.05-15.79,36.05-35.45V35.52c0-19.7-16.14-35.52-36-35.52a35.68,35.68,0,0,0-36,35.52V72.63A35.64,35.64,0,0,0,127.46,108.06Z"/><rect class="cls-1" x="183" y="226.33" width="57.63" height="50.14"/><rect class="cls-1" x="276.18" y="226.33" width="57.68" height="50.14"/><rect class="cls-1" x="362.6" y="226.33" width="57.63" height="50.14"/><rect class="cls-1" x="183" y="309.6" width="57.63" height="50.11"/><rect class="cls-1" x="276.18" y="309.6" width="57.68" height="50.11"/><rect class="cls-1" x="362.6" y="309.6" width="57.63" height="50.11"/><rect class="cls-1" x="183" y="394.52" width="57.63" height="50.11"/><rect class="cls-1" x="91.47" y="309.6" width="57.59" height="50.11"/><rect class="cls-1" x="91.47" y="394.52" width="57.59" height="50.11"/><rect class="cls-1" x="276.18" y="394.52" width="57.68" height="50.11"/><rect class="cls-1" x="362.6" y="394.52" width="57.63" height="50.11"/></svg>