<svg id="Layer_1" data-name="Layer 1" xmlns="http://www.w3.org/2000/svg" viewBox="0 0 512 512"><title>meeting-state-cancelled</title><path d="M256,0C115.4,0,0,115.4,0,256S115.4,512,256,512,512,396.6,512,256,396.6,0,256,0ZM97.1,369A193.36,193.36,0,0,1,61,256C61,148.5,148.5,61,256,61A193.36,193.36,0,0,1,369,97.1a14.62,14.62,0,0,1,1.9,1.6L98.7,370.8A9.34,9.34,0,0,1,97.1,369ZM256,451a192.83,192.83,0,0,1-112.9-36.1,14.62,14.62,0,0,1-1.9-1.6L413.3,141.2a14.62,14.62,0,0,1,1.6,1.9A192.83,192.83,0,0,1,451,256C451,363.5,363.5,451,256,451Z" transform="translate(0 0)"/></svg>