<svg id="Layer_1" data-name="Layer 1" xmlns="http://www.w3.org/2000/svg" viewBox="0 0 336.9 512"><title>meeting-state-pending</title><path d="M365.3,175.5A177.61,177.61,0,0,0,424.4,43.3V18.6A18.56,18.56,0,0,0,405.8,0H106.2A18.56,18.56,0,0,0,87.6,18.6V43.3a177.61,177.61,0,0,0,59.1,132.2l24.7,22.1a78.95,78.95,0,0,1,.4,117.3L146,338.2A177.54,177.54,0,0,0,87.8,469.7v23.7A18.56,18.56,0,0,0,106.4,512H405.9a18.56,18.56,0,0,0,18.6-18.6V469.7a177.75,177.75,0,0,0-58.2-131.5l-25.9-23.3a78.95,78.95,0,0,1,.4-117.3ZM323.1,348.4A102,102,0,0,1,374.7,437v20a13.08,13.08,0,0,1-13.1,13.1h-211A13.08,13.08,0,0,1,137.5,457V436.8a101.82,101.82,0,0,1,51.6-88.6l55.8-31.6a22.78,22.78,0,0,1,22.6,0Z" transform="translate(-87.6 0)"/></svg>