<svg id="Capa_1" data-name="Capa 1" xmlns="http://www.w3.org/2000/svg" viewBox="0 0 256 256"><title>open-meetings</title><path d="M128,64a11.61,11.61,0,0,0,11.6-11.6V23.3a11.6,11.6,0,0,0-23.2,0v5.8H88.7V52.4h27.6A11.76,11.76,0,0,0,128,64Z"/><path d="M190.5,64a11.61,11.61,0,0,0,11.6-11.6V23.3a11.6,11.6,0,1,0-23.2,0v5.8H151.3V52.4h27.6A11.61,11.61,0,0,0,190.5,64Z"/><path d="M23.3,203.5V52.4H53.8a11.65,11.65,0,0,0,23.3,0V23.3a11.6,11.6,0,1,0-23.2,0v5.8H11.6A11.61,11.61,0,0,0,0,40.7V215.2a11.61,11.61,0,0,0,11.6,11.6H71.4a69.22,69.22,0,0,1-10.9-23.3Z"/><path d="M244.4,29.1H213.9V52.4h18.9V87.3h-.1V203.6h-8.2v23.3h19.9A11.61,11.61,0,0,0,256,215.3V40.7A11.61,11.61,0,0,0,244.4,29.1Z"/><path d="M178.6,153.1a25.3,25.3,0,1,0,25.3,25.3A25.27,25.27,0,0,0,178.6,153.1Z"/><path d="M203.2,203.6a35.25,35.25,0,0,1-49.4,0,35.18,35.18,0,0,0-10.7,25.3v10.4a5.12,5.12,0,0,0,5.1,5.1h61a5.12,5.12,0,0,0,5.1-5.1V228.9A35.54,35.54,0,0,0,203.2,203.6Z"/><path d="M77.4,71.8A25.59,25.59,0,0,0,52.1,97.4,25.3,25.3,0,1,0,77.4,71.8Z"/><path d="M102.1,122.7a35.25,35.25,0,0,1-49.4,0A35.54,35.54,0,0,0,41.6,148v10.1a5.12,5.12,0,0,0,5.1,5.1h61a5.12,5.12,0,0,0,5.1-5.1V148A35.18,35.18,0,0,0,102.1,122.7Z"/><path d="M128,213.7a55.76,55.76,0,0,1-53.5-40.4H64.1A65.83,65.83,0,0,0,128,223.8a52.53,52.53,0,0,0,5.6-.3,45,45,0,0,1,2.4-10.4A52.87,52.87,0,0,1,128,213.7Z"/><path d="M203.6,96.3a3.18,3.18,0,0,0-1.8-1.8L147.5,72.1a3.2,3.2,0,0,0-4.2,1.8l-22.5,54.4a3.31,3.31,0,0,0,0,2.4,3.18,3.18,0,0,0,1.8,1.8l36.5,15.1a5.27,5.27,0,0,0,1.2.3,2.66,2.66,0,0,0,1.2-.3l25.3-10.4a3.18,3.18,0,0,0,1.8-1.8l15.1-36.5A4.57,4.57,0,0,0,203.6,96.3Zm-37.4,42.3,3.2-7.8,7.8,3.2Zm17.6-8.7-15-6.2a3.2,3.2,0,0,0-4.2,1.8l-6.2,14.9-30.7-12.7,20.1-48.5,48.5,20.1Z"/><polygon points="177.1 109.7 174.7 103.9 158.4 110.6 155.6 103.9 149.8 106.4 155 118.9 177.1 109.7"/></svg>