<?xml version="1.0" encoding="utf-8"?>
<!-- Generator: Adobe Illustrator 23.0.1, SVG Export Plug-In . SVG Version: 6.00 Build 0)  -->
<svg version="1.1" id="Capa_1" xmlns="http://www.w3.org/2000/svg" xmlns:xlink="http://www.w3.org/1999/xlink" x="0px" y="0px"
	 viewBox="0 0 512 512" style="enable-background:new 0 0 512 512;" xml:space="preserve">
<style type="text/css">
	.st0{fill:#030104;}
</style>
<title>suggestions_new</title>
<title>suggestions_new</title>
<g>
	<g>
		<path class="st0" d="M224.5,93.5c11.5,0,20.9-9.4,20.9-20.9V50.2c0-11.5-9.4-20.9-20.9-20.9c-11.5,0-20.9,9.4-20.9,20.9v22.2
			c-0.1,11.5,9.1,21,20.7,21.1C224.4,93.5,224.4,93.5,224.5,93.5z"/>
		<path class="st0" d="M74.6,93.5c11.5,0,20.9-9.4,20.9-20.9l0,0V50.2c0-11.5-9.4-20.9-20.9-20.9s-20.9,9.4-20.9,20.9v22.2
			c-0.1,11.5,9.1,21,20.7,21.1C74.4,93.5,74.5,93.5,74.6,93.5z"/>
	</g>
	<g>
		<rect x="107.1" y="163.7" class="st0" width="33.7" height="29.8"/>
		<rect x="161.7" y="163.7" class="st0" width="33.7" height="29.8"/>
		<rect x="212.3" y="163.7" class="st0" width="33.7" height="29.8"/>
		<rect x="107.1" y="213.2" class="st0" width="33.7" height="29.8"/>
		<rect x="161.7" y="213.2" class="st0" width="33.7" height="29.8"/>
		<rect x="107.1" y="263.6" class="st0" width="33.7" height="29.8"/>
		<rect x="53.6" y="213.2" class="st0" width="33.7" height="29.8"/>
		<rect x="53.6" y="263.6" class="st0" width="33.7" height="29.8"/>
		<rect x="161.7" y="263.6" class="st0" width="33.7" height="29.8"/>
	</g>
	<g>
		<path class="st0" d="M436.8,242.8c11.5,0,20.9-9.4,20.9-20.9v-22.5c0-11.5-9.4-20.9-20.9-20.9s-20.9,9.4-20.9,20.9v22.2
			c-0.1,11.5,9.1,21,20.7,21.1C436.7,242.8,436.7,242.8,436.8,242.8z"/>
		<path class="st0" d="M286.9,242.8c11.5,0,20.9-9.4,20.9-20.9l0,0v-22.5c0-11.5-9.4-20.9-20.9-20.9c-11.5,0-20.9,9.4-20.9,20.9
			v22.2c-0.1,11.5,9.1,21,20.7,21.1C286.7,242.8,286.8,242.8,286.9,242.8z"/>
	</g>
	<g>
		<rect x="319.4" y="313" class="st0" width="33.7" height="29.8"/>
		<rect x="373.9" y="313" class="st0" width="33.7" height="29.8"/>
		<rect x="424.6" y="313" class="st0" width="33.7" height="29.8"/>
		<rect x="319.4" y="362.5" class="st0" width="33.7" height="29.8"/>
		<rect x="373.9" y="362.5" class="st0" width="33.7" height="29.8"/>
		<rect x="424.6" y="362.5" class="st0" width="33.7" height="29.8"/>
		<rect x="319.4" y="412.9" class="st0" width="33.7" height="29.8"/>
		<rect x="265.9" y="362.5" class="st0" width="33.7" height="29.8"/>
		<rect x="265.9" y="412.9" class="st0" width="33.7" height="29.8"/>
		<rect x="373.9" y="412.9" class="st0" width="33.7" height="29.8"/>
		<rect x="424.6" y="412.9" class="st0" width="33.7" height="29.8"/>
	</g>
	<path class="st0" d="M512,482.7L511.7,215h-42.4v10.4c1,17.7-12.5,32.9-30.3,33.9c-17.7,1-32.9-12.5-33.9-30.3
		c-0.1-1.2-0.1-2.4,0-3.7V215h-85.7v10.4c1,17.7-12.5,32.9-30.3,33.9c-17.7,1-32.9-12.5-33.9-30.3c-0.1-1.2-0.1-2.4,0-3.7V215
		l-42.8-0.5v97.6H21.4V140.7h256.9v25.6c2.7-0.8,5.6-1.3,8.6-1.3c4.5,0,8.8,1,12.7,2.8l-0.1-102.1H257v10.4
		c1,17.7-12.5,32.9-30.3,33.9c-17.7,1-32.9-12.5-33.9-30.3c-0.1-1.2-0.1-2.4,0-3.7V65.8H107v10.4c1,17.7-12.5,32.9-30.3,33.9
		c-17.7,1-32.9-12.5-33.9-30.3c-0.1-1.2-0.1-2.4,0-3.7V65.8L0,65.2v268.2h212.3v149.3H512z M233.7,290h256.9v171.4H233.7V290z"/>
</g>
</svg>
