<svg id="Capa_1" data-name="Capa 1" xmlns="http://www.w3.org/2000/svg" viewBox="0 0 28.71 29.12"><defs><style>.cls-1{fill:#030104;}</style></defs><title>suggestions_new</title><path class="cls-1" d="M21.71,6.15a2,2,0,0,0,2-2V2a2,2,0,0,0-4,0V4.13A2,2,0,0,0,21.71,6.15Z" transform="translate(-0.21 0)"/><path class="cls-1" d="M28.88,3.49H24.82v1a3.08,3.08,0,1,1-6.15,0v-1H10.46v1a3.08,3.08,0,1,1-6.15,0v-1L.21,3.44V29.12h28.7Zm-2,23.59H2.26V10.67h24.6V27.08Z" transform="translate(-0.21 0)"/><path class="cls-1" d="M7.35,6.15a2,2,0,0,0,2-2V2a2,2,0,1,0-4,0V4.13A2,2,0,0,0,7.35,6.15Z" transform="translate(-0.21 0)"/><rect class="cls-1" x="10.26" y="12.87" width="3.23" height="2.85"/><rect class="cls-1" x="15.48" y="12.87" width="3.23" height="2.85"/><rect class="cls-1" x="20.33" y="12.87" width="3.23" height="2.85"/><rect class="cls-1" x="10.26" y="17.61" width="3.23" height="2.85"/><rect class="cls-1" x="15.48" y="17.61" width="3.23" height="2.85"/><rect class="cls-1" x="20.33" y="17.61" width="3.23" height="2.85"/><rect class="cls-1" x="10.26" y="22.44" width="3.23" height="2.85"/><rect class="cls-1" x="5.13" y="17.61" width="3.23" height="2.85"/><rect class="cls-1" x="5.13" y="22.44" width="3.23" height="2.85"/><rect class="cls-1" x="15.48" y="22.44" width="3.23" height="2.85"/><rect class="cls-1" x="20.33" y="22.44" width="3.23" height="2.85"/></svg>