<svg id="Capa_1" data-name="Capa 1" xmlns="http://www.w3.org/2000/svg" viewBox="0 0 512 365.71"><defs><style>.cls-1{fill:#030104;}</style></defs><title>email</title><path class="cls-1" d="M256,329.14,192.66,273.7,11.56,429a37.1,37.1,0,0,0,25.27,9.91H475.17A36.81,36.81,0,0,0,500.33,429l-181-155.25Z" transform="translate(0 -73.14)"/><path class="cls-1" d="M500.44,83.05a36.84,36.84,0,0,0-25.27-9.91H36.83a36.68,36.68,0,0,0-25.2,10L256,292.57Z" transform="translate(0 -73.14)"/><polygon class="cls-1" points="0 32.11 0 335.94 176.75 185.75 0 32.11"/><polygon class="cls-1" points="335.25 185.75 512 335.94 512 32 335.25 185.75"/></svg>