<?xml version="1.0" encoding="utf-8"?>
<!-- Generator: Adobe Illustrator 23.0.1, SVG Export Plug-In . SVG Version: 6.00 Build 0)  -->
<svg version="1.1" xmlns="http://www.w3.org/2000/svg" xmlns:xlink="http://www.w3.org/1999/xlink" x="0px" y="0px"
	 viewBox="0 0 512 512" style="enable-background:new 0 0 512 512;" xml:space="preserve">
<style type="text/css">
	.st0{fill:#F2F2F2;}
	.st1{fill:#E6E6E6;}
	.st2{fill:#F7F7F7;}
	.st3{fill:#D9D9D9;}
	.st4{display:none;}
	.st5{display:inline;}
	.st6{fill:#FAFAFA;}
	.st7{clip-path:url(#bg_5_);fill:#B8B8B8;}
	.st8{fill:#B8B8B8;}
	.st9{fill:#CC0A2F;}
</style>
<g id="v1">
</g>
<g id="v2">
</g>
<g id="v3">
</g>
<g id="v4">
	<g class="st4">
		<path class="st5" d="M362.14,37H150.37c-17.64,0-32.08,14.43-32.08,32.08V479.9c0,17.66,14.44,32.1,32.08,32.1h211.77
			c17.64,0,32.08-14.41,32.08-32.08V69.08C394.22,51.43,379.78,37,362.14,37z M222.38,60.13h67.75c2.14,0,3.88,1.74,3.88,3.9
			c0,2.14-1.74,3.88-3.88,3.88h-67.75c-2.14,0-3.88-1.74-3.88-3.88C218.5,61.86,220.23,60.13,222.38,60.13z M256.25,495.96
			c-8.86,0-16.04-7.18-16.04-16.05s7.18-16.04,16.04-16.04c8.86,0,16.04,7.17,16.04,16.04S265.11,495.96,256.25,495.96z
			 M371.89,452.62H140.61V87.88h231.28V452.62z"/>
	</g>
	<g class="st4">
		<path class="st5" d="M140.61,452.5V87.88h231.28V452.5h22.33V69.08c0-17.66-14.44-32.08-32.08-32.08H150.37
			c-17.64,0-32.08,14.43-32.08,32.08V452.5H140.61z M222.38,60.13h67.75c2.14,0,3.88,1.74,3.88,3.9c0,2.14-1.74,3.88-3.88,3.88
			h-67.75c-2.14,0-3.88-1.74-3.88-3.88C218.5,61.86,220.23,60.13,222.38,60.13z"/>
	</g>
	<circle id="bg_2_" class="st1" cx="256" cy="312.6" r="199.4"/>
	<g id="user_2_">
		<g>
			<g>
				<path class="st6" d="M256.71,129c-49.6,0-89.63,41.45-89.63,90.69s40.03,89.63,89.63,89.63s89.63-40.03,89.63-89.63
					S306.31,129,256.71,129z"/>
			</g>
		</g>
		<g>
			<g>
				<path class="st6" d="M344.21,309.32c-22.67,21.96-53.49,35.78-87.5,35.78s-64.83-13.82-87.5-35.78
					c-23.38,22.67-39.32,54.56-39.32,89.63v35.78c0,9.92,8.15,18.07,18.07,18.07h216.1c9.92,0,18.07-8.15,18.07-18.07v-35.78
					C382.12,363.88,367.6,332,344.21,309.32z"/>
			</g>
		</g>
		<circle class="st6" cx="256.7" cy="481.13" r="21.87"/>
	</g>
	<g>
		<defs>
			<circle id="bg_4_" cx="256" cy="312.6" r="199.4"/>
		</defs>
		<clipPath id="bg_5_">
			<use xlink:href="#bg_4_"  style="overflow:visible;"/>
		</clipPath>
		<path class="st7" d="M366.23,18.69H146.3c-18.32,0-33.32,14.98-33.32,33.32v426.65c0,18.34,15,33.33,33.32,33.33h219.93
			c18.32,0,33.32-14.97,33.32-33.32V52.01C399.55,33.68,384.55,18.69,366.23,18.69z M221.08,42.71h70.36c2.23,0,4.03,1.8,4.03,4.05
			c0,2.23-1.8,4.03-4.03,4.03h-70.36c-2.23,0-4.03-1.8-4.03-4.03C217.05,44.51,218.86,42.71,221.08,42.71z M256.26,495.34
			c-9.2,0-16.66-7.46-16.66-16.67s7.46-16.66,16.66-16.66c9.2,0,16.66,7.44,16.66,16.66S265.47,495.34,256.26,495.34z
			 M376.36,450.34h-240.2V71.53h240.2V450.34z"/>
	</g>
	<g>
		<g>
			<path class="st8" d="M136.16,173.99V92.3h240.2v82.09c8.25,6.26,16.01,13.15,23.19,20.59V72.78c0-18.34-15-33.32-33.32-33.32
				H146.3c-18.32,0-33.32,14.98-33.32,33.32v121.66C120.16,187.05,127.91,180.21,136.16,173.99z M221.08,63.48h70.36
				c2.23,0,4.03,1.8,4.03,4.05c0,2.23-1.8,4.03-4.03,4.03h-70.36c-2.23,0-4.03-1.8-4.03-4.03
				C217.05,65.29,218.86,63.48,221.08,63.48z"/>
		</g>
		<g>
			<circle class="st9" cx="387.89" cy="63.35" r="63.35"/>
			<g>
				<path class="st6" d="M394.62,63.35l29.89-29.89c1.86-1.86,1.86-4.87,0-6.72c-1.86-1.86-4.87-1.86-6.72,0L387.9,56.63L358,26.73
					c-1.86-1.86-4.87-1.86-6.72,0c-1.86,1.86-1.86,4.87,0,6.72l29.9,29.89l-29.9,29.89c-1.86,1.86-1.86,4.87,0,6.72
					c0.93,0.93,2.15,1.39,3.36,1.39c1.22,0,2.43-0.46,3.36-1.39l29.9-29.89l29.89,29.89c0.93,0.93,2.15,1.39,3.36,1.39
					s2.43-0.46,3.36-1.39c1.86-1.86,1.86-4.87,0-6.72L394.62,63.35z"/>
			</g>
		</g>
	</g>
</g>
</svg>
