<svg id="Ebene_1" data-name="Ebene 1" xmlns="http://www.w3.org/2000/svg" xmlns:xlink="http://www.w3.org/1999/xlink" viewBox="0 0 512 512"><defs><style>.cls-1{fill:none;}.cls-2{fill:#e6e6e6;}.cls-3{fill:#fafafa;}.cls-4{clip-path:url(#clip-path);}.cls-5{fill:#b8b8b8;}.cls-6{fill:#cc0a2f;}</style><clipPath id="clip-path"><circle class="cls-1" cx="256" cy="312.6" r="199.4"/></clipPath></defs><title>no-user_new</title><g id="v4"><circle id="bg" class="cls-2" cx="256" cy="312.6" r="199.4"/><g id="user"><path class="cls-3" d="M256.71,129c-49.6,0-89.63,41.45-89.63,90.69a89.63,89.63,0,0,0,179.26,0C346.34,170.09,306.31,129,256.71,129Z"/><path class="cls-3" d="M344.21,309.32a124.88,124.88,0,0,1-175,0C145.83,332,129.89,363.88,129.89,399v35.78A18.15,18.15,0,0,0,148,452.8h216.1a18.15,18.15,0,0,0,18.07-18.07V399A124.68,124.68,0,0,0,344.21,309.32Z"/><circle class="cls-3" cx="256.7" cy="481.13" r="21.87"/></g><g class="cls-4"><path class="cls-5" d="M366.23,18.69H146.3A33.41,33.41,0,0,0,113,52V478.66A33.42,33.42,0,0,0,146.3,512H366.23a33.41,33.41,0,0,0,33.32-33.32V52A33.42,33.42,0,0,0,366.23,18.69Zm-145.15,24h70.36a4,4,0,0,1,0,8.08H221.08a4,4,0,0,1,0-8.08Zm35.18,452.63a16.67,16.67,0,1,1,16.66-16.67A16.66,16.66,0,0,1,256.26,495.34Zm120.1-45H136.16V71.53h240.2Z"/></g><path class="cls-5" d="M136.16,174V92.3h240.2v82.09A201.56,201.56,0,0,1,399.55,195V72.78a33.41,33.41,0,0,0-33.32-33.32H146.3A33.41,33.41,0,0,0,113,72.78V194.44A201.22,201.22,0,0,1,136.16,174ZM221.08,63.48h70.36a4,4,0,0,1,0,8.08H221.08a4,4,0,0,1,0-8.08Z"/><circle class="cls-6" cx="387.89" cy="63.35" r="63.35"/><path class="cls-3" d="M394.62,63.35l29.89-29.89a4.75,4.75,0,0,0-6.72-6.72L387.9,56.63,358,26.73a4.75,4.75,0,0,0-6.72,6.72l29.9,29.89-29.9,29.89A4.75,4.75,0,0,0,358,100l29.9-29.89L417.79,100a4.75,4.75,0,0,0,6.72-6.72Z"/></g></svg>