<svg id="Ebene_1" data-name="Ebene 1" xmlns="http://www.w3.org/2000/svg" viewBox="0 0 398.73 512"><title>user</title><path d="M256.93-.2C178.4-.2,115.34,65.5,115.34,143.28s63.43,141.59,141.59,141.59a141.65,141.65,0,0,0,141.6-141.59C398.53,65.12,335.09-.2,256.93-.2Z" transform="translate(-56.44 0.2)"/><path d="M395.13,284.87c-35.87,34.74-84.58,56.64-138.2,56.64s-102.32-21.9-138.19-56.64c-37,35.87-62.3,86.09-62.3,141.6V483.1a28.68,28.68,0,0,0,28.69,28.7H426.47a28.68,28.68,0,0,0,28.69-28.7V426.47A198.2,198.2,0,0,0,395.13,284.87Z" transform="translate(-56.44 0.2)"/></svg>