<svg id="Ebene_1" data-name="Ebene 1" xmlns="http://www.w3.org/2000/svg" viewBox="0 0 398.72 512"><title>user_2</title><path d="M257.12,0C178.59,0,115.53,65.7,115.53,143.48S179,285.07,257.12,285.07a141.65,141.65,0,0,0,141.6-141.59C398.72,65.32,335.28,0,257.12,0Z" transform="translate(-56.63)"/><path d="M395.33,285.07c-35.87,34.74-84.59,56.64-138.21,56.64s-102.32-21.9-138.19-56.64c-37,35.87-62.3,86.09-62.3,141.6V483.3A28.69,28.69,0,0,0,85.29,512H426.66a28.67,28.67,0,0,0,28.69-28.67V426.67A198.19,198.19,0,0,0,395.33,285.07Z" transform="translate(-56.63)"/></svg>